<svg xmlns="http://www.w3.org/2000/svg" viewBox="0 0 1200 400" width="1200" height="400">
  <defs>
    <linearGradient id="bg-grad" x1="0%" y1="0%" x2="100%" y2="100%">
      <stop offset="0%" stop-color="#0f172a" />
      <stop offset="50%" stop-color="#1e1b4b" />
      <stop offset="100%" stop-color="#311042" />
    </linearGradient>
    <linearGradient id="curve-grad" x1="0%" y1="0%" x2="100%" y2="0%">
      <stop offset="0%" stop-color="#3b82f6" />
      <stop offset="50%" stop-color="#8b5cf6" />
      <stop offset="100%" stop-color="#ec4899" />
    </linearGradient>
  </defs>
  <rect width="1200" height="400" fill="url(#bg-grad)" />
  <!-- Grid overlay -->
  <g stroke="#ffffff" stroke-opacity="0.05" stroke-width="1">
    <line x1="0" y1="50" x2="1200" y2="50" />
    <line x1="0" y1="100" x2="1200" y2="100" />
    <line x1="0" y1="150" x2="1200" y2="150" />
    <line x1="0" y1="200" x2="1200" y2="200" />
    <line x1="0" y1="250" x2="1200" y2="250" />
    <line x1="0" y1="300" x2="1200" y2="300" />
    <line x1="0" y1="350" x2="1200" y2="350" />
    <line x1="100" y1="0" x2="100" y2="400" />
    <line x1="200" y1="0" x2="200" y2="400" />
    <line x1="300" y1="0" x2="300" y2="400" />
    <line x1="400" y1="0" x2="400" y2="400" />
    <line x1="500" y1="0" x2="500" y2="400" />
    <line x1="600" y1="0" x2="600" y2="400" />
    <line x1="700" y1="0" x2="700" y2="400" />
    <line x1="800" y1="0" x2="800" y2="400" />
    <line x1="900" y1="0" x2="900" y2="400" />
    <line x1="1000" y1="0" x2="1000" y2="400" />
    <line x1="1100" y1="0" x2="1100" y2="400" />
  </g>
  <!-- Activation curves -->
  <path d="M 100 350 Q 500 350 600 200 T 1100 50" fill="none" stroke="url(#curve-grad)" stroke-width="8" stroke-linecap="round" opacity="0.8" />
  <path d="M 100 320 Q 550 320 600 220 T 1100 20" fill="none" stroke="#10b981" stroke-width="4" stroke-linecap="round" stroke-dasharray="8 8" opacity="0.6" />
  <!-- Text -->
  <text x="50%" y="45%" dominant-baseline="middle" text-anchor="middle" font-family="system-ui, -apple-system, sans-serif" font-weight="900" font-size="62" fill="#ffffff" letter-spacing="2">
    AWESOME ACTIVATION FUNCTIONS
  </text>
  <text x="50%" y="62%" dominant-baseline="middle" text-anchor="middle" font-family="system-ui, -apple-system, sans-serif" font-weight="400" font-size="22" fill="#94a3b8" letter-spacing="4">
    Evolution • Types • Production Engineering • VLMs
  </text>
</svg>
